<svg width="43" height="43" viewBox="0 0 43 43" fill="none" xmlns="http://www.w3.org/2000/svg">
<path d="M42.8271 0.237092C42.8347 5.61285 40.7926 10.992 36.6987 15.1012C32.6546 19.1602 27.3642 21.2182 22.0542 21.2798C27.3659 21.3206 32.6662 23.3621 36.7264 27.4072C40.8343 31.5001 42.8954 36.87 42.9088 42.2443C37.5335 42.2516 32.1549 40.2093 28.046 36.1158C24.0192 32.104 21.9597 26.8651 21.867 21.5978C21.7953 26.8672 19.7553 32.1161 15.7421 36.1443C11.6493 40.2523 6.27933 42.3132 0.905077 42.3267C0.897741 36.9513 2.93986 31.5729 7.03351 27.4639C11.1243 23.358 16.49 21.295 21.8616 21.2795C21.8553 15.9054 23.8974 10.5287 27.99 6.42086C32.083 2.31263 37.4526 0.250503 42.8271 0.237092ZM15.6792 6.44241C19.7872 10.5354 21.8482 15.9051 21.8616 21.2795C16.4863 21.2868 11.1077 19.2446 6.99883 15.151C2.89071 11.0582 0.828584 5.68831 0.815067 0.313981C6.19083 0.306389 11.57 2.34849 15.6792 6.44241Z" fill="#E86AEA"/>
</svg>
